HIERARCHY
ROOT Hips
{
  OFFSET 2.59399e-05 120.011 0
  CHANNELS 6 Xposition Yposition Zposition Zrotation Xrotation Yrotation
  JOINT RightUpLeg
  {
    OFFSET -12.8929 0 0
    CHANNELS 3 Zrotation Xrotation Yrotation
    JOINT RightLeg
    {
      OFFSET 0 -60.3041 0
      CHANNELS 3 Zrotation Xrotation Yrotation
      JOINT RightFoot
      {
        OFFSET 0 -53.4221 0
        CHANNELS 3 Zrotation Xrotation Yrotation
        JOINT RightToeBase
        {
          OFFSET 0 -5.41187 17.795
          CHANNELS 3 Zrotation Xrotation Yrotation
          End Site
          {
            OFFSET 0 0 11.0798
          }
        }
      }
    }
  }
  JOINT LeftUpLeg
  {
    OFFSET 12.8929 0 0
    CHANNELS 3 Zrotation Xrotation Yrotation
    JOINT LeftLeg
    {
      OFFSET 0 -60.3041 0
      CHANNELS 3 Zrotation Xrotation Yrotation
      JOINT LeftFoot
      {
        OFFSET 0 -53.4221 0
        CHANNELS 3 Zrotation Xrotation Yrotation
        JOINT LeftToeBase
        {
          OFFSET 0 -5.41187 17.795
          CHANNELS 3 Zrotation Xrotation Yrotation
          End Site
          {
            OFFSET 0 0 11.0798
          }
        }
      }
    }
  }
  JOINT Spine
  {
    OFFSET 0 0.123189 0
    CHANNELS 3 Zrotation Xrotation Yrotation
    JOINT Spine1
    {
      OFFSET 0 41.8862 0
      CHANNELS 3 Zrotation Xrotation Yrotation
      JOINT RightShoulder
      {
        OFFSET 0 31.7409 0
        CHANNELS 3 Zrotation Xrotation Yrotation
        JOINT RightDummyShoulder
        {
          OFFSET 0 0 0
          CHANNELS 3 Zrotation Xrotation Yrotation
          JOINT RightArm
          {
            OFFSET -26.6195 -0.000158232 0
            CHANNELS 3 Zrotation Xrotation Yrotation
            JOINT RightForeArm
            {
              OFFSET -34.6831 -0.000156075 0
              CHANNELS 3 Zrotation Xrotation Yrotation
              JOINT RightHand
              {
                OFFSET -29.3377 -0.000116518 0
                CHANNELS 3 Zrotation Xrotation Yrotation
                End Site
                {
                  OFFSET -15.4188 0 0
                }
              }
            }
          }
        }
      }
      JOINT LeftShoulder
      {
        OFFSET 0 31.7409 0
        CHANNELS 3 Zrotation Xrotation Yrotation
        JOINT LeftDummyShoulder
        {
          OFFSET 0 0 0
          CHANNELS 3 Zrotation Xrotation Yrotation
          JOINT LeftArm
          {
            OFFSET 26.6195 -0.000158232 0
            CHANNELS 3 Zrotation Xrotation Yrotation
            JOINT LeftForeArm
            {
              OFFSET 34.6831 -0.000156075 0
              CHANNELS 3 Zrotation Xrotation Yrotation
              JOINT LeftHand
              {
                OFFSET 29.3377 -0.000116518 0
                CHANNELS 3 Zrotation Xrotation Yrotation
                End Site
                {
                  OFFSET 15.4188 0 0
                }
              }
            }
          }
        }
      }
      JOINT Neck
      {
        OFFSET 0 24.8104 0
        CHANNELS 3 Zrotation Xrotation Yrotation
        JOINT Head
        {
          OFFSET 0 21.3219 0
          CHANNELS 3 Zrotation Xrotation Yrotation
          End Site
          {
            OFFSET 0 17.7899 0
          }
        }
      }
    }
  }
}
MOTION
Frames:	6
Frame Time:	0.0333333
0.220528 118.32 6.70446 0 0 -0 0.00464794 5.29532e-06 -4.36406e-06 5.36527e-06 -1.21255e-05 4.36406e-06 -0.00465331 6.83019e-06 5.54718e-10 3.75244e-28 0 5.6498e-30 0.00474866 -5.21835 3.801e-06 -9.94115e-07 11.1112 -0.000151274 -0.00475693 -5.89281 -0.000341604 1.40505e-25 -1.89576e-22 5.7854e-27 0 0 -0 0 0 -0 0 0 -0 0 0 -0 0.000106513 -4.26903e-06 0.000126358 -0.000107306 -2.5609e-06 -0.000136972 7.92439e-07 6.83017e-06 1.06132e-05 0 0 -0 0 0 -0 -0.000120173 -1.7077e-06 -0.000134896 0.000122623 1.70799e-06 0.000143852 -2.44952e-06 1.91447e-13 -8.95612e-06 0 0 -0 0 0 -0 
57.9371 106.319 220.488 -6.22374 -3.00066 114.643 -25.7278 -38.9488 -23.4594 -24.0115 33.5169 19.066 -35.753 -1.97302 16.9079 5.74778 -6.27645 -6.99494 2.83248 -35.8636 27.6283 107.098 69.3936 -93.4253 53.4009 -12.0209 -17.0486 -7.97826 -1.95117 23.2364 18.8684 41.161 -3.35755 -16.0787 -29.4948 -13.4849 -9.00081 5.26462 -39.2308 -3.18055e-15 -7.95139e-16 -0 75.2484 41.7864 -9.12298 -6.24683 10.3082 54.0955 -6.17353 6.97171 19.1322 11.5664 -0.987258 21.4441 -7.95139e-16 -2.38542e-15 3.18055e-15 -61.3579 52.7821 -25.3803 3.01252 5.90553 -122.18 9.91366 1.24748 -18.2008 -6.69489 -14.3219 3.13607 -1.07734 -8.70468 5.80255 
66.2679 101.529 222.635 -3.73768 -3.84464 124.168 -28.4668 -33.9812 -24.1595 -29.5024 43.3911 22.4697 -19.6649 -8.83655 15.1896 9.34806 -6.41047 -9.95537 3.58031 -42.44 28.8856 118.363 64.9398 -103.323 50.198 -14.7152 -13.1179 -7.53439 -2.69404 22.223 20.3887 44.1265 -6.39844 -14.4479 -30.6069 -12.3631 -8.05306 4.18557 -38.9503 3.18055e-15 -3.97569e-16 -1.59028e-15 76.0344 42.7701 -8.32685 -5.65147 10.1094 52.1233 -6.52355 6.85855 19.6572 10.2408 0.111822 22.4431 -1.78906e-15 -3.37934e-15 3.18055e-15 -58.879 53.0882 -24.651 0.870362 4.22277 -120.165 13.0929 4.21302 -18.9852 -6.59777 -14.6295 2.74542 -0.0765385 -9.95016 4.89759 
73.796 96.7237 224.18 -0.406509 -3.72353 132.241 -29.8541 -28.8089 -28.2146 -37.3432 53.3404 29.5034 -14.1552 -19.6113 13.4382 10.6521 -9.10473 -12.032 2.61416 -48.3678 30.8656 119.646 62.55 -104.877 46.9526 -17.1579 -11.1297 -7.18017 -5.03733 22.3714 23.1376 49.2814 -8.30276 -13.7714 -32.637 -11.5661 -7.31463 1.91133 -38.7017 -2.20695e-32 -3.18055e-15 -3.97569e-16 73.8512 44.4776 -4.70079 -4.83403 10.0398 47.7193 -5.85641 6.21433 19.112 7.43946 0.98341 23.6826 -1.59028e-15 -7.95139e-16 -6.36111e-15 -58.8677 51.727 -22.9222 0.10189 2.02413 -115.001 15.6292 6.77595 -18.843 -6.71599 -15.1902 1.54827 -0.338568 -9.57148 3.52769 
78.803 93.0314 225.614 1.58274 -3.3956 136.678 -33.3412 -28.0995 -36.2707 -50.0129 63.0447 42.2779 -18.9535 -23.4513 11.965 9.56005 -10.8784 -13.2394 -0.197018 -55.0644 33.452 114.65 63.0304 -100.205 44.4707 -18.0953 -10.3465 -7.4595 -5.78554 22.1627 22.127 52.4561 -4.85081 -11.4303 -31.0142 -9.99966 -7.9081 -1.28603 -36.2312 6.36111e-15 0 1.59028e-15 68.9065 45.8208 3.18124 -5.16027 10.18 40.7246 -5.32115 5.73061 16.7959 4.66884 2.06586 23.6118 7.95139e-16 -4.77083e-15 3.18055e-15 -66.5397 47.2153 -18.2904 2.19109 -0.147599 -105.481 17.852 9.37882 -17.8598 -6.65662 -15.1869 -0.633047 -2.14727 -11.2072 1.92732 
85.2942 90.5759 227.059 4.36595 -4.17159 141.518 -29.7862 -25.455 -39.6028 -66.2556 65.6831 55.3757 -19.1263 -27.0652 10.4099 8.89066 -11.4421 -15.3829 -0.730582 -60.0118 35.5377 105.594 64.5244 -92.2709 43.4618 -17.7668 -10.7662 -7.7825 -5.72756 22.3605 24.4887 53.7948 -2.32004 -10.4558 -28.2039 -9.99787 -9.37081 -4.37752 -33.4028 3.18055e-15 8.74653e-15 -0 63.7561 44.117 11.6266 -6.07368 10.4323 34.7281 -4.14573 4.99742 13.2767 2.37703 4.04184 22.4973 -2.38542e-15 0 -3.18055e-15 -75.453 39.5405 -13.0257 4.44086 -0.582495 -96.8174 17.8048 10.8549 -13.5536 -6.38721 -15.7955 -2.78068 -4.02437 -11.599 0.511217 
